#!OML:ASF E:\emotionWalksFemale\Project 1\Capture day 1\Session 1\Female1.ASF
:FULLY-SPECIFIED
:DEGREES
418
root 9.68703 15.617 11.2515 357.34 -82.6759 1.83526
lowerback 7.54587 0.659827 0.124495
upperback -4.05467 0.860742 -0.236517
thorax -8.51772 0.396289 -0.44611
lowerneck -7.07996 -4.85033 -9.10176
upperneck 10.3392 -6.49613 8.05027
head 4.81758 -3.12245 3.55142
rclavicle 9.10061e-016 4.96962e-017
rhumerus -46.8176 12.3663 -90.2773
rradius 42.7007
rwrist 23.201
rhand -3.18164 -60.091
rfingers 7.12502
rthumb 22.5396 631.205
lclavicle 9.10061e-016 4.96962e-017
lhumerus -31.9502 4.85304 72.9892
lradius 52.726
lwrist 6.79539
lhand -6.72073 -34.4499
lfingers 7.12502
lthumb 19.1394 -5.37167
rfemur 3.40151 22.219 29.1732
rtibia 10.9801
rfoot -15.6734 -30.1451
rtoes 9.22024
lfemur -5.72248 -24.5891 -22.794
ltibia 23.1249
lfoot -17.6245 22.4143
ltoes -30.3055
419
root 9.68096 15.6279 11.2687 356.828 -83.3147 2.24558
lowerback 7.56001 0.671813 0.140182
upperback -4.06013 0.877862 -0.242861
thorax -8.53146 0.403369 -0.464401
lowerneck -7.14143 -4.63365 -8.84033
upperneck 10.5464 -6.22869 7.94014
head 4.85571 -2.98721 3.49339
rclavicle 1.36509e-014 -1.71452e-015
rhumerus -46.3864 11.5633 -89.9668
rradius 42.0438
rwrist 23.3588
rhand -3.59736 -59.8054
rfingers 7.12502
rthumb 22.1406 631.442
lclavicle 1.36509e-014 -1.71452e-015
lhumerus -32.3776 5.23261 72.7848
lradius 52.6009
lwrist 6.90193
lhand -6.56472 -34.4003
lfingers 7.12502
lthumb 19.2894 -5.33694
rfemur 3.46704 22.0639 29.0549
rtibia 10.9922
rfoot -15.2451 -29.5797
rtoes 8.26219
lfemur -5.24979 -25.1644 -22.9921
ltibia 23.0349
lfoot -20.2084 21.6575
ltoes -16.7463
420
root 9.67753 15.6194 11.2864 356.539 -83.9271 2.45761
lowerback 7.58421 0.682513 0.185186
upperback -4.0633 0.903002 -0.170412
thorax -8.54937 0.415321 -0.417178
lowerneck -7.20899 -4.42493 -8.76285
upperneck 10.6664 -5.93798 7.79742
head 4.87197 -2.84837 3.45679
rclavicle -1.65209e-014 -9.56651e-016
rhumerus -45.8086 10.7471 -89.4338
rradius 41.2543
rwrist 23.8121
rhand -3.69427 -59.9862
rfingers 7.12502
rthumb 22.0475 631.251
lclavicle -1.65209e-014 -9.56651e-016
lhumerus -32.7836 5.53908 72.7214
lradius 52.3192
lwrist 6.77559
lhand -6.56952 -34.5009
lfingers 7.12502
lthumb 19.2848 -5.43714
rfemur 3.37491 21.8283 28.9518
rtibia 11.2273
rfoot -14.9654 -28.8758
rtoes 8.08482
lfemur -5.0603 -24.4734 -23.1889
ltibia 22.8934
lfoot -18.4977 23.1138
ltoes -25.9741
421
root 9.6729 15.6322 11.3042 356.537 -84.4694 2.4198
lowerback 7.55856 0.68123 0.281893
upperback -4.0461 0.914659 -0.138668
thorax -8.51461 0.416724 -0.439151
lowerneck -7.36616 -4.23679 -8.55904
upperneck 10.8021 -5.68082 7.62999
head 4.90739 -2.72045 3.38757
rclavicle -9.62786e-015 -4.8081e-015
rhumerus -45.075 9.84097 -88.9653
rradius 40.3763
rwrist 24.3604
rhand -3.73999 -60.1289
rfingers 7.12502
rthumb 22.0036 631.103
lclavicle -9.62786e-015 -4.8081e-015
lhumerus -33.1708 5.78072 72.6797
lradius 52.0371
lwrist 6.46663
lhand -6.65655 -34.6485
lfingers 7.12502
lthumb 19.2011 -5.57636
rfemur 3.36309 22.2126 28.9621
rtibia 11.3654
rfoot -15.0108 -28.7145
rtoes 9.24628
lfemur -4.68031 -24.8627 -23.2347
ltibia 22.8462
lfoot -21.1433 21.7426
ltoes -11.3382
422
root 9.66906 15.6285 11.3188 356.925 -85.0182 1.8623
lowerback 7.64474 0.720712 0.439126
upperback -3.97622 0.985646 -0.152211
thorax -8.48595 0.442683 -0.553006
lowerneck -7.56602 -4.12153 -8.34631
upperneck 11.008 -5.54054 7.57242
head 4.98493 -2.64287 3.34191
rclavicle -2.65273e-015 2.32174e-015
rhumerus -44.4126 8.41107 -88.4173
rradius 39.5153
rwrist 25.2275
rhand -4.11039 -59.7733
rfingers 7.12502
rthumb 21.6479 631.417
lclavicle -2.65273e-015 2.32174e-015
lhumerus -33.6074 5.73472 72.7235
lradius 51.9498
lwrist 6.42061
lhand -6.48059 -34.667
lfingers 7.12502
lthumb 19.3703 -5.61174
rfemur 3.4037 23.0479 29.1801
rtibia 11.8123
rfoot -15.3766 -29.0027
rtoes 10.2432
lfemur -4.28168 -24.6347 -23.3208
ltibia 22.7033
lfoot -21.2708 21.856
ltoes -10.7056
